<svg width="40" height="40" viewBox="0 0 40 40" fill="none" xmlns="http://www.w3.org/2000/svg">
<circle cx="20" cy="20" r="20" fill="#AA535B" fill-opacity="0.73"/>
<path d="M25.0075 24.4238V26.7998H15.4855V24.9098L20.3455 20.3198C20.8615 19.8278 21.2095 19.4078 21.3895 19.0598C21.5695 18.6998 21.6595 18.3458 21.6595 17.9978C21.6595 17.4938 21.4855 17.1098 21.1375 16.8458C20.8015 16.5698 20.3035 16.4318 19.6435 16.4318C19.0915 16.4318 18.5935 16.5398 18.1495 16.7558C17.7055 16.9598 17.3335 17.2718 17.0335 17.6918L14.9095 16.3238C15.4015 15.5918 16.0795 15.0218 16.9435 14.6138C17.8075 14.1938 18.7975 13.9838 19.9135 13.9838C20.8495 13.9838 21.6655 14.1398 22.3615 14.4518C23.0695 14.7518 23.6155 15.1838 23.9995 15.7478C24.3955 16.2998 24.5935 16.9538 24.5935 17.7098C24.5935 18.3938 24.4495 19.0358 24.1615 19.6358C23.8735 20.2358 23.3155 20.9198 22.4875 21.6878L19.5895 24.4238H25.0075Z" fill="#F7F9F9"/>
</svg>
