<svg width="679" height="250" viewBox="0 0 679 250" fill="none" xmlns="http://www.w3.org/2000/svg">
<circle cx="125" cy="125" r="125" fill="#DBE1E9"/>
<circle cx="304" cy="64" r="25" fill="#AA535B"/>
<circle cx="671.5" cy="119.5" r="7.5" fill="#AA535B"/>
<circle cx="556" cy="125" r="15" fill="black"/>
<circle cx="364" cy="117" r="15" fill="black"/>
<circle cx="462" cy="185" r="15" fill="#AA535B"/>
<circle cx="457" cy="87" r="20" fill="#5D6AA2"/>
<circle cx="326.5" cy="222.5" r="22.5" fill="#ACB4D3"/>
<circle cx="628" cy="77" r="20" fill="#ACB4D3"/>
<circle cx="125" cy="125" r="125" fill="#006A96"/>
<path d="M69.6523 158.07C64.8242 158.07 61.0273 159.781 58.2617 163.203C55.4961 166.625 54.1133 171.348 54.1133 177.371C54.1133 183.676 55.4375 188.445 58.0859 191.68C60.7578 194.914 64.6133 196.531 69.6523 196.531C71.832 196.531 73.9414 196.32 75.9805 195.898C78.0195 195.453 80.1406 194.891 82.3438 194.211V201.418C78.3125 202.941 73.7422 203.703 68.6328 203.703C61.1094 203.703 55.332 201.43 51.3008 196.883C47.2695 192.312 45.2539 185.785 45.2539 177.301C45.2539 171.957 46.2266 167.281 48.1719 163.273C50.1406 159.266 52.9766 156.195 56.6797 154.062C60.3828 151.93 64.7305 150.863 69.7227 150.863C74.9727 150.863 79.8242 151.965 84.2773 154.168L81.2539 161.164C79.5195 160.344 77.6797 159.629 75.7344 159.02C73.8125 158.387 71.7852 158.07 69.6523 158.07ZM142.419 176.809C142.419 185.293 140.063 191.785 135.352 196.285C130.641 200.762 123.856 203 114.997 203H100.618V151.602H116.509C124.688 151.602 131.052 153.805 135.598 158.211C140.145 162.617 142.419 168.816 142.419 176.809ZM133.559 177.09C133.559 164.785 127.805 158.633 116.298 158.633H109.02V195.934H114.997C127.372 195.934 133.559 189.652 133.559 177.09ZM160.693 203V151.602H169.095V195.793H190.857V203H160.693Z" fill="#F3E500"/>
<path fill-rule="evenodd" clip-rule="evenodd" d="M174.743 9.84663L138.201 68.5377L100 44.7529L127.864 0C144.477 0.242897 160.304 3.72641 174.743 9.84663Z" fill="#F3E500"/>
<path fill-rule="evenodd" clip-rule="evenodd" d="M221.772 45.3995L162.201 141.077L124 117.293L187.068 16C200.362 23.6197 212.123 33.612 221.772 45.3995Z" fill="#F3E500"/>
<path fill-rule="evenodd" clip-rule="evenodd" d="M250.401 112.769L226.201 151.637L188 127.852L231.492 58C241.764 74.1196 248.443 92.752 250.401 112.769Z" fill="#F3E500"/>
</svg>
