<svg width="603" height="457" viewBox="0 0 603 457" fill="none" xmlns="http://www.w3.org/2000/svg">
<rect x="52" y="79" width="500" height="300" fill="#F7F9F9"/>
<rect x="91.3197" y="20.9633" width="13.9755" height="252.216" transform="rotate(-90 91.3197 20.9633)" fill="#5D6AA2"/>
<rect x="588.505" y="9.78288" width="6.98777" height="92.7692" transform="rotate(90 588.505 9.78288)" fill="#5D6AA2"/>
<rect x="579.808" y="9.78288" width="8.69711" height="76.8654" fill="#5D6AA2"/>
<rect y="437.434" width="6.98777" height="66.6779" transform="rotate(-90 0 437.434)" fill="#5D6AA2"/>
<rect x="5.79808" y="437.434" width="5.79808" height="76.8654" transform="rotate(-180 5.79808 437.434)" fill="#5D6AA2"/>
<ellipse cx="582.707" cy="437.434" rx="20.2933" ry="19.5658" fill="#ACB4D3"/>
<path d="M91.2051 442.506C89.5091 442.506 87.9731 442.138 86.5971 441.402C85.2371 440.65 84.1651 439.618 83.3811 438.306C82.6131 436.994 82.2291 435.514 82.2291 433.866C82.2291 432.218 82.6211 430.738 83.4051 429.426C84.1891 428.114 85.2611 427.09 86.6211 426.354C87.9971 425.602 89.5331 425.226 91.2291 425.226C92.6051 425.226 93.8611 425.466 94.9971 425.946C96.1331 426.426 97.0931 427.122 97.8771 428.034L95.8611 429.93C94.6451 428.618 93.1491 427.962 91.3731 427.962C90.2211 427.962 89.1891 428.218 88.2771 428.73C87.3651 429.226 86.6531 429.922 86.1411 430.818C85.6291 431.714 85.3731 432.73 85.3731 433.866C85.3731 435.002 85.6291 436.018 86.1411 436.914C86.6531 437.81 87.3651 438.514 88.2771 439.026C89.1891 439.522 90.2211 439.77 91.3731 439.77C93.1491 439.77 94.6451 439.106 95.8611 437.778L97.8771 439.698C97.0931 440.61 96.1251 441.306 94.9731 441.786C93.8371 442.266 92.5811 442.506 91.2051 442.506ZM112.158 435.93C112.158 436.138 112.142 436.434 112.11 436.818H102.054C102.23 437.762 102.686 438.514 103.422 439.074C104.174 439.618 105.102 439.89 106.206 439.89C107.614 439.89 108.774 439.426 109.686 438.498L111.294 440.346C110.718 441.034 109.99 441.554 109.11 441.906C108.23 442.258 107.238 442.434 106.134 442.434C104.726 442.434 103.486 442.154 102.414 441.594C101.342 441.034 100.51 440.258 99.9178 439.266C99.3418 438.258 99.0538 437.122 99.0538 435.858C99.0538 434.61 99.3338 433.49 99.8938 432.498C100.47 431.49 101.262 430.706 102.27 430.146C103.278 429.586 104.414 429.306 105.678 429.306C106.926 429.306 108.038 429.586 109.014 430.146C110.006 430.69 110.774 431.466 111.318 432.474C111.878 433.466 112.158 434.618 112.158 435.93ZM105.678 431.706C104.718 431.706 103.902 431.994 103.23 432.57C102.574 433.13 102.174 433.882 102.03 434.826H109.302C109.174 433.898 108.782 433.146 108.126 432.57C107.47 431.994 106.654 431.706 105.678 431.706ZM122.312 429.306C123.928 429.306 125.224 429.778 126.2 430.722C127.176 431.666 127.664 433.066 127.664 434.922V442.266H124.664V435.306C124.664 434.186 124.4 433.346 123.872 432.786C123.344 432.21 122.592 431.922 121.616 431.922C120.512 431.922 119.64 432.258 119 432.93C118.36 433.586 118.04 434.538 118.04 435.786V442.266H115.04V429.45H117.896V431.106C118.392 430.514 119.016 430.066 119.768 429.762C120.52 429.458 121.368 429.306 122.312 429.306ZM139.173 441.57C138.821 441.858 138.389 442.074 137.877 442.218C137.381 442.362 136.853 442.434 136.293 442.434C134.885 442.434 133.797 442.066 133.029 441.33C132.261 440.594 131.877 439.522 131.877 438.114V431.946H129.765V429.546H131.877V426.618H134.877V429.546H138.309V431.946H134.877V438.042C134.877 438.666 135.029 439.146 135.333 439.482C135.637 439.802 136.077 439.962 136.653 439.962C137.325 439.962 137.885 439.786 138.333 439.434L139.173 441.57ZM153.267 435.93C153.267 436.138 153.251 436.434 153.219 436.818H143.163C143.339 437.762 143.795 438.514 144.531 439.074C145.283 439.618 146.211 439.89 147.315 439.89C148.723 439.89 149.883 439.426 150.795 438.498L152.403 440.346C151.827 441.034 151.099 441.554 150.219 441.906C149.339 442.258 148.347 442.434 147.243 442.434C145.835 442.434 144.595 442.154 143.523 441.594C142.451 441.034 141.619 440.258 141.027 439.266C140.451 438.258 140.163 437.122 140.163 435.858C140.163 434.61 140.443 433.49 141.003 432.498C141.579 431.49 142.371 430.706 143.379 430.146C144.387 429.586 145.523 429.306 146.787 429.306C148.035 429.306 149.147 429.586 150.123 430.146C151.115 430.69 151.883 431.466 152.427 432.474C152.987 433.466 153.267 434.618 153.267 435.93ZM146.787 431.706C145.827 431.706 145.011 431.994 144.339 432.57C143.683 433.13 143.283 433.882 143.139 434.826H150.411C150.283 433.898 149.891 433.146 149.235 432.57C148.579 431.994 147.763 431.706 146.787 431.706ZM159.005 431.322C159.869 429.978 161.389 429.306 163.565 429.306V432.162C163.309 432.114 163.077 432.09 162.869 432.09C161.701 432.09 160.789 432.434 160.133 433.122C159.477 433.794 159.149 434.77 159.149 436.05V442.266H156.149V429.45H159.005V431.322ZM178.068 426.714C176.804 426.714 176.172 427.402 176.172 428.778V429.546H179.7V431.946H176.268V442.266H173.268V431.946H171.156V429.546H173.268V428.73C173.268 427.354 173.668 426.274 174.468 425.49C175.268 424.69 176.396 424.29 177.852 424.29C179.004 424.29 179.908 424.522 180.564 424.986L179.724 427.242C179.212 426.89 178.66 426.714 178.068 426.714ZM187.292 442.434C185.996 442.434 184.828 442.154 183.788 441.594C182.748 441.034 181.932 440.258 181.34 439.266C180.764 438.258 180.476 437.122 180.476 435.858C180.476 434.594 180.764 433.466 181.34 432.474C181.932 431.482 182.748 430.706 183.788 430.146C184.828 429.586 185.996 429.306 187.292 429.306C188.604 429.306 189.78 429.586 190.82 430.146C191.86 430.706 192.668 431.482 193.244 432.474C193.836 433.466 194.132 434.594 194.132 435.858C194.132 437.122 193.836 438.258 193.244 439.266C192.668 440.258 191.86 441.034 190.82 441.594C189.78 442.154 188.604 442.434 187.292 442.434ZM187.292 439.866C188.396 439.866 189.308 439.498 190.028 438.762C190.748 438.026 191.108 437.058 191.108 435.858C191.108 434.658 190.748 433.69 190.028 432.954C189.308 432.218 188.396 431.85 187.292 431.85C186.188 431.85 185.276 432.218 184.556 432.954C183.852 433.69 183.5 434.658 183.5 435.858C183.5 437.058 183.852 438.026 184.556 438.762C185.276 439.498 186.188 439.866 187.292 439.866ZM199.856 431.322C200.72 429.978 202.24 429.306 204.416 429.306V432.162C204.16 432.114 203.928 432.09 203.72 432.09C202.552 432.09 201.64 432.434 200.984 433.122C200.328 433.794 200 434.77 200 436.05V442.266H197V429.45H199.856V431.322ZM213.999 425.466H221.343C223.135 425.466 224.727 425.818 226.119 426.522C227.511 427.21 228.591 428.194 229.359 429.474C230.127 430.738 230.511 432.202 230.511 433.866C230.511 435.53 230.127 437.002 229.359 438.282C228.591 439.546 227.511 440.53 226.119 441.234C224.727 441.922 223.135 442.266 221.343 442.266H213.999V425.466ZM221.199 439.626C222.431 439.626 223.511 439.394 224.439 438.93C225.383 438.45 226.103 437.778 226.599 436.914C227.111 436.034 227.367 435.018 227.367 433.866C227.367 432.714 227.111 431.706 226.599 430.842C226.103 429.962 225.383 429.29 224.439 428.826C223.511 428.346 222.431 428.106 221.199 428.106H217.119V439.626H221.199ZM233.54 429.45H236.54V442.266H233.54V429.45ZM235.052 427.338C234.508 427.338 234.052 427.17 233.684 426.834C233.316 426.482 233.132 426.05 233.132 425.538C233.132 425.026 233.316 424.602 233.684 424.266C234.052 423.914 234.508 423.738 235.052 423.738C235.596 423.738 236.052 423.906 236.42 424.242C236.788 424.562 236.972 424.97 236.972 425.466C236.972 425.994 236.788 426.442 236.42 426.81C236.068 427.162 235.612 427.338 235.052 427.338ZM253.197 429.45V440.322C253.197 444.834 250.893 447.09 246.285 447.09C245.053 447.09 243.885 446.93 242.781 446.61C241.677 446.306 240.765 445.858 240.045 445.266L241.389 443.01C241.949 443.474 242.653 443.842 243.501 444.114C244.365 444.402 245.237 444.546 246.117 444.546C247.525 444.546 248.557 444.226 249.213 443.586C249.869 442.946 250.197 441.97 250.197 440.658V439.986C249.685 440.546 249.061 440.97 248.325 441.258C247.589 441.546 246.781 441.69 245.901 441.69C244.685 441.69 243.581 441.434 242.589 440.922C241.613 440.394 240.837 439.658 240.261 438.714C239.701 437.77 239.421 436.69 239.421 435.474C239.421 434.258 239.701 433.186 240.261 432.258C240.837 431.314 241.613 430.586 242.589 430.074C243.581 429.562 244.685 429.306 245.901 429.306C246.829 429.306 247.669 429.458 248.421 429.762C249.189 430.066 249.829 430.53 250.341 431.154V429.45H253.197ZM246.357 439.146C247.493 439.146 248.421 438.81 249.141 438.138C249.877 437.45 250.245 436.562 250.245 435.474C250.245 434.402 249.877 433.53 249.141 432.858C248.421 432.186 247.493 431.85 246.357 431.85C245.205 431.85 244.261 432.186 243.525 432.858C242.805 433.53 242.445 434.402 242.445 435.474C242.445 436.562 242.805 437.45 243.525 438.138C244.261 438.81 245.205 439.146 246.357 439.146ZM257.141 429.45H260.141V442.266H257.141V429.45ZM258.653 427.338C258.109 427.338 257.653 427.17 257.285 426.834C256.917 426.482 256.733 426.05 256.733 425.538C256.733 425.026 256.917 424.602 257.285 424.266C257.653 423.914 258.109 423.738 258.653 423.738C259.197 423.738 259.653 423.906 260.021 424.242C260.389 424.562 260.573 424.97 260.573 425.466C260.573 425.994 260.389 426.442 260.021 426.81C259.669 427.162 259.213 427.338 258.653 427.338ZM271.783 441.57C271.431 441.858 270.999 442.074 270.487 442.218C269.991 442.362 269.463 442.434 268.903 442.434C267.495 442.434 266.407 442.066 265.639 441.33C264.871 440.594 264.487 439.522 264.487 438.114V431.946H262.375V429.546H264.487V426.618H267.487V429.546H270.919V431.946H267.487V438.042C267.487 438.666 267.639 439.146 267.943 439.482C268.247 439.802 268.687 439.962 269.263 439.962C269.935 439.962 270.495 439.786 270.943 439.434L271.783 441.57ZM279.146 429.306C281.034 429.306 282.474 429.762 283.466 430.674C284.474 431.57 284.978 432.93 284.978 434.754V442.266H282.146V440.706C281.778 441.266 281.25 441.698 280.562 442.002C279.89 442.29 279.074 442.434 278.114 442.434C277.154 442.434 276.314 442.274 275.594 441.954C274.874 441.618 274.314 441.162 273.914 440.586C273.53 439.994 273.338 439.33 273.338 438.594C273.338 437.442 273.762 436.522 274.61 435.834C275.474 435.13 276.826 434.778 278.666 434.778H281.978V434.586C281.978 433.69 281.706 433.002 281.162 432.522C280.634 432.042 279.842 431.802 278.786 431.802C278.066 431.802 277.354 431.914 276.65 432.138C275.962 432.362 275.378 432.674 274.898 433.074L273.722 430.89C274.394 430.378 275.202 429.986 276.146 429.714C277.09 429.442 278.09 429.306 279.146 429.306ZM278.738 440.25C279.49 440.25 280.154 440.082 280.73 439.746C281.322 439.394 281.738 438.898 281.978 438.258V436.77H278.882C277.154 436.77 276.29 437.338 276.29 438.474C276.29 439.018 276.506 439.45 276.938 439.77C277.37 440.09 277.97 440.25 278.738 440.25ZM288.829 424.458H291.829V442.266H288.829V424.458ZM302.687 425.466H305.807V439.626H314.591V442.266H302.687V425.466ZM328.697 435.93C328.697 436.138 328.681 436.434 328.649 436.818H318.593C318.769 437.762 319.225 438.514 319.961 439.074C320.713 439.618 321.641 439.89 322.745 439.89C324.153 439.89 325.313 439.426 326.225 438.498L327.833 440.346C327.257 441.034 326.529 441.554 325.649 441.906C324.769 442.258 323.777 442.434 322.673 442.434C321.265 442.434 320.025 442.154 318.953 441.594C317.881 441.034 317.049 440.258 316.457 439.266C315.881 438.258 315.593 437.122 315.593 435.858C315.593 434.61 315.873 433.49 316.433 432.498C317.009 431.49 317.801 430.706 318.809 430.146C319.817 429.586 320.953 429.306 322.217 429.306C323.465 429.306 324.577 429.586 325.553 430.146C326.545 430.69 327.313 431.466 327.857 432.474C328.417 433.466 328.697 434.618 328.697 435.93ZM322.217 431.706C321.257 431.706 320.441 431.994 319.769 432.57C319.113 433.13 318.713 433.882 318.569 434.826H325.841C325.713 433.898 325.321 433.146 324.665 432.57C324.009 431.994 323.193 431.706 322.217 431.706ZM336.123 429.306C338.011 429.306 339.451 429.762 340.443 430.674C341.451 431.57 341.955 432.93 341.955 434.754V442.266H339.123V440.706C338.755 441.266 338.227 441.698 337.539 442.002C336.867 442.29 336.051 442.434 335.091 442.434C334.131 442.434 333.291 442.274 332.571 441.954C331.851 441.618 331.291 441.162 330.891 440.586C330.507 439.994 330.315 439.33 330.315 438.594C330.315 437.442 330.739 436.522 331.587 435.834C332.451 435.13 333.803 434.778 335.643 434.778H338.955V434.586C338.955 433.69 338.683 433.002 338.139 432.522C337.611 432.042 336.819 431.802 335.763 431.802C335.043 431.802 334.331 431.914 333.627 432.138C332.939 432.362 332.355 432.674 331.875 433.074L330.699 430.89C331.371 430.378 332.179 429.986 333.123 429.714C334.067 429.442 335.067 429.306 336.123 429.306ZM335.715 440.25C336.467 440.25 337.131 440.082 337.707 439.746C338.299 439.394 338.715 438.898 338.955 438.258V436.77H335.859C334.131 436.77 333.267 437.338 333.267 438.474C333.267 439.018 333.483 439.45 333.915 439.77C334.347 440.09 334.947 440.25 335.715 440.25ZM348.661 431.322C349.525 429.978 351.045 429.306 353.221 429.306V432.162C352.965 432.114 352.733 432.09 352.525 432.09C351.357 432.09 350.445 432.434 349.789 433.122C349.133 433.794 348.805 434.77 348.805 436.05V442.266H345.805V429.45H348.661V431.322ZM363.038 429.306C364.654 429.306 365.95 429.778 366.926 430.722C367.902 431.666 368.39 433.066 368.39 434.922V442.266H365.39V435.306C365.39 434.186 365.126 433.346 364.598 432.786C364.07 432.21 363.318 431.922 362.342 431.922C361.238 431.922 360.366 432.258 359.726 432.93C359.086 433.586 358.766 434.538 358.766 435.786V442.266H355.766V429.45H358.622V431.106C359.118 430.514 359.742 430.066 360.494 429.762C361.246 429.458 362.094 429.306 363.038 429.306ZM372.196 429.45H375.196V442.266H372.196V429.45ZM373.708 427.338C373.164 427.338 372.708 427.17 372.34 426.834C371.972 426.482 371.788 426.05 371.788 425.538C371.788 425.026 371.972 424.602 372.34 424.266C372.708 423.914 373.164 423.738 373.708 423.738C374.252 423.738 374.708 423.906 375.076 424.242C375.444 424.562 375.628 424.97 375.628 425.466C375.628 425.994 375.444 426.442 375.076 426.81C374.724 427.162 374.268 427.338 373.708 427.338ZM386.405 429.306C388.021 429.306 389.317 429.778 390.293 430.722C391.269 431.666 391.757 433.066 391.757 434.922V442.266H388.757V435.306C388.757 434.186 388.493 433.346 387.965 432.786C387.437 432.21 386.685 431.922 385.709 431.922C384.605 431.922 383.733 432.258 383.093 432.93C382.453 433.586 382.133 434.538 382.133 435.786V442.266H379.133V429.45H381.989V431.106C382.485 430.514 383.109 430.066 383.861 429.762C384.613 429.458 385.461 429.306 386.405 429.306ZM408.4 429.45V440.322C408.4 444.834 406.096 447.09 401.488 447.09C400.256 447.09 399.088 446.93 397.984 446.61C396.88 446.306 395.968 445.858 395.248 445.266L396.592 443.01C397.152 443.474 397.856 443.842 398.704 444.114C399.568 444.402 400.44 444.546 401.32 444.546C402.728 444.546 403.76 444.226 404.416 443.586C405.072 442.946 405.4 441.97 405.4 440.658V439.986C404.888 440.546 404.264 440.97 403.528 441.258C402.792 441.546 401.984 441.69 401.104 441.69C399.888 441.69 398.784 441.434 397.792 440.922C396.816 440.394 396.04 439.658 395.464 438.714C394.904 437.77 394.624 436.69 394.624 435.474C394.624 434.258 394.904 433.186 395.464 432.258C396.04 431.314 396.816 430.586 397.792 430.074C398.784 429.562 399.888 429.306 401.104 429.306C402.032 429.306 402.872 429.458 403.624 429.762C404.392 430.066 405.032 430.53 405.544 431.154V429.45H408.4ZM401.56 439.146C402.696 439.146 403.624 438.81 404.344 438.138C405.08 437.45 405.448 436.562 405.448 435.474C405.448 434.402 405.08 433.53 404.344 432.858C403.624 432.186 402.696 431.85 401.56 431.85C400.408 431.85 399.464 432.186 398.728 432.858C398.008 433.53 397.648 434.402 397.648 435.474C397.648 436.562 398.008 437.45 398.728 438.138C399.464 438.81 400.408 439.146 401.56 439.146Z" fill="#5F6A6B"/>
<rect x="10.1466" y="233.391" width="7.2476" height="75.4679" transform="rotate(-180 10.1466 233.391)" fill="#5D6AA2"/>
<ellipse cx="17.3942" cy="11.1804" rx="11.5962" ry="11.1804" fill="black"/>
<rect x="70" y="91" width="464" height="275" fill="#006A96"/>
<path fill-rule="evenodd" clip-rule="evenodd" d="M355.348 303.666L291 249.672L424.141 91H533.796L355.348 303.666Z" fill="#F3E500"/>
<path fill-rule="evenodd" clip-rule="evenodd" d="M170 235.046L231.284 286.469L397.819 88H293.387L170 235.046Z" fill="#F3E500"/>
<path fill-rule="evenodd" clip-rule="evenodd" d="M135 120.671L196.284 172.094L266.847 88H162.414L135 120.671Z" fill="#F3E500"/>
<path d="M215.752 342.64C211.229 342.64 207.133 341.659 203.464 339.696C199.837 337.691 196.979 334.939 194.888 331.44C192.84 327.941 191.816 323.995 191.816 319.6C191.816 315.205 192.861 311.259 194.952 307.76C197.043 304.261 199.901 301.531 203.528 299.568C207.197 297.563 211.293 296.56 215.816 296.56C219.485 296.56 222.835 297.2 225.864 298.48C228.893 299.76 231.453 301.616 233.544 304.048L228.168 309.104C224.925 305.605 220.936 303.856 216.2 303.856C213.128 303.856 210.376 304.539 207.944 305.904C205.512 307.227 203.613 309.083 202.248 311.472C200.883 313.861 200.2 316.571 200.2 319.6C200.2 322.629 200.883 325.339 202.248 327.728C203.613 330.117 205.512 331.995 207.944 333.36C210.376 334.683 213.128 335.344 216.2 335.344C220.936 335.344 224.925 333.573 228.168 330.032L233.544 335.152C231.453 337.584 228.872 339.44 225.8 340.72C222.771 342 219.421 342.64 215.752 342.64ZM241.516 297.2H261.1C265.879 297.2 270.124 298.139 273.836 300.016C277.548 301.851 280.428 304.475 282.476 307.888C284.524 311.259 285.548 315.163 285.548 319.6C285.548 324.037 284.524 327.963 282.476 331.376C280.428 334.747 277.548 337.371 273.836 339.248C270.124 341.083 265.879 342 261.1 342H241.516V297.2ZM260.716 334.96C264.001 334.96 266.881 334.341 269.356 333.104C271.873 331.824 273.793 330.032 275.116 327.728C276.481 325.381 277.164 322.672 277.164 319.6C277.164 316.528 276.481 313.84 275.116 311.536C273.793 309.189 271.873 307.397 269.356 306.16C266.881 304.88 264.001 304.24 260.716 304.24H249.836V334.96H260.716ZM294.391 297.2H302.711V334.96H326.135V342H294.391V297.2Z" fill="#F3E500"/>
</svg>
