<svg width="309" height="362" viewBox="0 0 309 362" fill="none" xmlns="http://www.w3.org/2000/svg">
<rect x="29" y="25" width="250" height="300" fill="#F7F9F9"/>
<rect x="39" y="38" width="229.167" height="275" fill="#E5A19F" fill-opacity="0.85"/>
<path d="M128.119 152.2C129.607 152.2 130.895 152.448 131.983 152.944C133.087 153.44 133.935 154.144 134.527 155.056C135.119 155.968 135.415 157.048 135.415 158.296C135.415 159.528 135.119 160.608 134.527 161.536C133.935 162.448 133.087 163.152 131.983 163.648C130.895 164.128 129.607 164.368 128.119 164.368H124.735V169H120.847V152.2H128.119ZM127.903 161.2C129.071 161.2 129.959 160.952 130.567 160.456C131.175 159.944 131.479 159.224 131.479 158.296C131.479 157.352 131.175 156.632 130.567 156.136C129.959 155.624 129.071 155.368 127.903 155.368H124.735V161.2H127.903ZM144.048 169.192C142.688 169.192 141.464 168.912 140.376 168.352C139.304 167.776 138.464 166.984 137.856 165.976C137.248 164.968 136.944 163.824 136.944 162.544C136.944 161.264 137.248 160.12 137.856 159.112C138.464 158.104 139.304 157.32 140.376 156.76C141.464 156.184 142.688 155.896 144.048 155.896C145.408 155.896 146.624 156.184 147.696 156.76C148.768 157.32 149.608 158.104 150.216 159.112C150.824 160.12 151.128 161.264 151.128 162.544C151.128 163.824 150.824 164.968 150.216 165.976C149.608 166.984 148.768 167.776 147.696 168.352C146.624 168.912 145.408 169.192 144.048 169.192ZM144.048 166.12C145.008 166.12 145.792 165.8 146.4 165.16C147.024 164.504 147.336 163.632 147.336 162.544C147.336 161.456 147.024 160.592 146.4 159.952C145.792 159.296 145.008 158.968 144.048 158.968C143.088 158.968 142.296 159.296 141.672 159.952C141.048 160.592 140.736 161.456 140.736 162.544C140.736 163.632 141.048 164.504 141.672 165.16C142.296 165.8 143.088 166.12 144.048 166.12ZM153.63 156.088H157.374V169H153.63V156.088ZM155.502 154.288C154.814 154.288 154.254 154.088 153.822 153.688C153.39 153.288 153.174 152.792 153.174 152.2C153.174 151.608 153.39 151.112 153.822 150.712C154.254 150.312 154.814 150.112 155.502 150.112C156.19 150.112 156.75 150.304 157.182 150.688C157.614 151.072 157.83 151.552 157.83 152.128C157.83 152.752 157.614 153.272 157.182 153.688C156.75 154.088 156.19 154.288 155.502 154.288ZM168.697 155.896C170.297 155.896 171.585 156.376 172.561 157.336C173.553 158.296 174.049 159.72 174.049 161.608V169H170.305V162.184C170.305 161.16 170.081 160.4 169.633 159.904C169.185 159.392 168.537 159.136 167.689 159.136C166.745 159.136 165.993 159.432 165.433 160.024C164.873 160.6 164.593 161.464 164.593 162.616V169H160.849V156.088H164.425V157.6C164.921 157.056 165.537 156.64 166.273 156.352C167.009 156.048 167.817 155.896 168.697 155.896ZM185.771 168.376C185.403 168.648 184.947 168.856 184.403 169C183.875 169.128 183.315 169.192 182.723 169.192C181.187 169.192 179.995 168.8 179.147 168.016C178.315 167.232 177.899 166.08 177.899 164.56V159.256H175.907V156.376H177.899V153.232H181.643V156.376H184.859V159.256H181.643V164.512C181.643 165.056 181.779 165.48 182.051 165.784C182.339 166.072 182.739 166.216 183.251 166.216C183.843 166.216 184.347 166.056 184.763 165.736L185.771 168.376ZM121.674 181.2C123.162 181.2 124.45 181.448 125.538 181.944C126.642 182.44 127.49 183.144 128.082 184.056C128.674 184.968 128.97 186.048 128.97 187.296C128.97 188.528 128.674 189.608 128.082 190.536C127.49 191.448 126.642 192.152 125.538 192.648C124.45 193.128 123.162 193.368 121.674 193.368H118.29V198H114.402V181.2H121.674ZM121.458 190.2C122.626 190.2 123.514 189.952 124.122 189.456C124.73 188.944 125.034 188.224 125.034 187.296C125.034 186.352 124.73 185.632 124.122 185.136C123.514 184.624 122.626 184.368 121.458 184.368H118.29V190.2H121.458ZM137.602 198.192C136.242 198.192 135.018 197.912 133.93 197.352C132.858 196.776 132.018 195.984 131.41 194.976C130.802 193.968 130.498 192.824 130.498 191.544C130.498 190.264 130.802 189.12 131.41 188.112C132.018 187.104 132.858 186.32 133.93 185.76C135.018 185.184 136.242 184.896 137.602 184.896C138.962 184.896 140.178 185.184 141.25 185.76C142.322 186.32 143.162 187.104 143.77 188.112C144.378 189.12 144.682 190.264 144.682 191.544C144.682 192.824 144.378 193.968 143.77 194.976C143.162 195.984 142.322 196.776 141.25 197.352C140.178 197.912 138.962 198.192 137.602 198.192ZM137.602 195.12C138.562 195.12 139.346 194.8 139.954 194.16C140.578 193.504 140.89 192.632 140.89 191.544C140.89 190.456 140.578 189.592 139.954 188.952C139.346 188.296 138.562 187.968 137.602 187.968C136.642 187.968 135.85 188.296 135.226 188.952C134.602 189.592 134.29 190.456 134.29 191.544C134.29 192.632 134.602 193.504 135.226 194.16C135.85 194.8 136.642 195.12 137.602 195.12ZM154.817 184.896C156.017 184.896 157.105 185.176 158.081 185.736C159.073 186.28 159.849 187.056 160.409 188.064C160.969 189.056 161.249 190.216 161.249 191.544C161.249 192.872 160.969 194.04 160.409 195.048C159.849 196.04 159.073 196.816 158.081 197.376C157.105 197.92 156.017 198.192 154.817 198.192C153.169 198.192 151.873 197.672 150.929 196.632V202.656H147.185V185.088H150.761V186.576C151.689 185.456 153.041 184.896 154.817 184.896ZM154.169 195.12C155.129 195.12 155.913 194.8 156.521 194.16C157.145 193.504 157.457 192.632 157.457 191.544C157.457 190.456 157.145 189.592 156.521 188.952C155.913 188.296 155.129 187.968 154.169 187.968C153.209 187.968 152.417 188.296 151.793 188.952C151.185 189.592 150.881 190.456 150.881 191.544C150.881 192.632 151.185 193.504 151.793 194.16C152.417 194.8 153.209 195.12 154.169 195.12ZM171.387 184.896C172.587 184.896 173.675 185.176 174.651 185.736C175.643 186.28 176.419 187.056 176.979 188.064C177.539 189.056 177.819 190.216 177.819 191.544C177.819 192.872 177.539 194.04 176.979 195.048C176.419 196.04 175.643 196.816 174.651 197.376C173.675 197.92 172.587 198.192 171.387 198.192C169.739 198.192 168.443 197.672 167.499 196.632V202.656H163.755V185.088H167.331V186.576C168.259 185.456 169.611 184.896 171.387 184.896ZM170.739 195.12C171.699 195.12 172.483 194.8 173.091 194.16C173.715 193.504 174.027 192.632 174.027 191.544C174.027 190.456 173.715 189.592 173.091 188.952C172.483 188.296 171.699 187.968 170.739 187.968C169.779 187.968 168.987 188.296 168.363 188.952C167.755 189.592 167.451 190.456 167.451 191.544C167.451 192.632 167.755 193.504 168.363 194.16C168.987 194.8 169.779 195.12 170.739 195.12ZM192.79 185.088L186.958 198.792C186.366 200.28 185.63 201.328 184.75 201.936C183.886 202.544 182.838 202.848 181.606 202.848C180.934 202.848 180.27 202.744 179.614 202.536C178.958 202.328 178.422 202.04 178.006 201.672L179.374 199.008C179.662 199.264 179.99 199.464 180.358 199.608C180.742 199.752 181.118 199.824 181.486 199.824C181.998 199.824 182.414 199.696 182.734 199.44C183.054 199.2 183.342 198.792 183.598 198.216L183.646 198.096L178.054 185.088H181.918L185.542 193.848L189.19 185.088H192.79Z" fill="white"/>
<path d="M131.983 152.944L131.776 153.399L131.779 153.4L131.983 152.944ZM134.527 161.536L134.947 161.808L134.949 161.805L134.527 161.536ZM131.983 163.648L132.185 164.105L132.188 164.104L131.983 163.648ZM124.735 164.368V163.868H124.235V164.368H124.735ZM124.735 169V169.5H125.235V169H124.735ZM120.847 169H120.347V169.5H120.847V169ZM120.847 152.2V151.7H120.347V152.2H120.847ZM130.567 160.456L130.884 160.843L130.89 160.838L130.567 160.456ZM130.567 156.136L130.245 156.519L130.251 156.523L130.567 156.136ZM124.735 155.368V154.868H124.235V155.368H124.735ZM124.735 161.2H124.235V161.7H124.735V161.2ZM128.119 152.7C129.553 152.7 130.767 152.939 131.776 153.399L132.191 152.489C131.024 151.957 129.662 151.7 128.119 151.7V152.7ZM131.779 153.4C132.805 153.861 133.574 154.506 134.108 155.328L134.947 154.784C134.297 153.782 133.37 153.019 132.188 152.488L131.779 153.4ZM134.108 155.328C134.64 156.148 134.915 157.13 134.915 158.296H135.915C135.915 156.966 135.599 155.788 134.947 154.784L134.108 155.328ZM134.915 158.296C134.915 159.444 134.641 160.429 134.106 161.267L134.949 161.805C135.598 160.787 135.915 159.612 135.915 158.296H134.915ZM134.108 161.264C133.574 162.086 132.805 162.731 131.779 163.192L132.188 164.104C133.37 163.573 134.297 162.81 134.947 161.808L134.108 161.264ZM131.782 163.191C130.771 163.636 129.555 163.868 128.119 163.868V164.868C129.66 164.868 131.02 164.62 132.185 164.105L131.782 163.191ZM128.119 163.868H124.735V164.868H128.119V163.868ZM124.235 164.368V169H125.235V164.368H124.235ZM124.735 168.5H120.847V169.5H124.735V168.5ZM121.347 169V152.2H120.347V169H121.347ZM120.847 152.7H128.119V151.7H120.847V152.7ZM127.903 161.7C129.132 161.7 130.152 161.44 130.884 160.843L130.251 160.069C129.767 160.464 129.01 160.7 127.903 160.7V161.7ZM130.89 160.838C131.63 160.215 131.979 159.344 131.979 158.296H130.979C130.979 159.104 130.721 159.673 130.245 160.074L130.89 160.838ZM131.979 158.296C131.979 157.236 131.632 156.359 130.884 155.749L130.251 156.523C130.719 156.905 130.979 157.468 130.979 158.296H131.979ZM130.89 155.754C130.157 155.137 129.136 154.868 127.903 154.868V155.868C129.007 155.868 129.762 156.111 130.245 156.518L130.89 155.754ZM127.903 154.868H124.735V155.868H127.903V154.868ZM124.235 155.368V161.2H125.235V155.368H124.235ZM124.735 161.7H127.903V160.7H124.735V161.7ZM140.376 168.352L140.139 168.793L140.147 168.797L140.376 168.352ZM137.856 165.976L137.428 166.234L137.856 165.976ZM137.856 159.112L137.428 158.854L137.856 159.112ZM140.376 156.76L140.607 157.203L140.61 157.202L140.376 156.76ZM147.696 156.76L147.459 157.2L147.464 157.203L147.696 156.76ZM150.216 159.112L150.644 158.854L150.216 159.112ZM150.216 165.976L150.644 166.234L150.216 165.976ZM147.696 168.352L147.927 168.795L147.932 168.792L147.696 168.352ZM146.4 165.16L146.038 164.815L146.037 164.816L146.4 165.16ZM146.4 159.952L146.033 160.292L146.042 160.301L146.4 159.952ZM141.672 159.952L142.03 160.301L142.034 160.297L141.672 159.952ZM141.672 165.16L141.309 165.505L141.314 165.509L141.672 165.16ZM144.048 168.692C142.758 168.692 141.614 168.427 140.605 167.907L140.147 168.797C141.313 169.397 142.617 169.692 144.048 169.692V168.692ZM140.612 167.912C139.617 167.377 138.844 166.646 138.284 165.718L137.428 166.234C138.084 167.322 138.991 168.175 140.139 168.792L140.612 167.912ZM138.284 165.718C137.727 164.794 137.444 163.741 137.444 162.544H136.444C136.444 163.907 136.769 165.142 137.428 166.234L138.284 165.718ZM137.444 162.544C137.444 161.347 137.727 160.294 138.284 159.37L137.428 158.854C136.769 159.946 136.444 161.181 136.444 162.544H137.444ZM138.284 159.37C138.843 158.443 139.614 157.722 140.607 157.203L140.144 156.317C138.993 156.918 138.084 157.765 137.428 158.854L138.284 159.37ZM140.61 157.202C141.618 156.668 142.761 156.396 144.048 156.396V155.396C142.615 155.396 141.309 155.7 140.142 156.318L140.61 157.202ZM144.048 156.396C145.335 156.396 146.468 156.668 147.459 157.2L147.932 156.32C146.779 155.7 145.481 155.396 144.048 155.396V156.396ZM147.464 157.203C148.457 157.722 149.228 158.443 149.788 159.37L150.644 158.854C149.987 157.765 149.078 156.918 147.927 156.317L147.464 157.203ZM149.788 159.37C150.345 160.294 150.628 161.347 150.628 162.544H151.628C151.628 161.181 151.303 159.946 150.644 158.854L149.788 159.37ZM150.628 162.544C150.628 163.741 150.345 164.794 149.788 165.718L150.644 166.234C151.303 165.142 151.628 163.907 151.628 162.544H150.628ZM149.788 165.718C149.228 166.646 148.455 167.377 147.459 167.912L147.932 168.792C149.081 168.175 149.988 167.322 150.644 166.234L149.788 165.718ZM147.464 167.909C146.472 168.427 145.337 168.692 144.048 168.692V169.692C145.478 169.692 146.775 169.397 147.927 168.795L147.464 167.909ZM144.048 166.62C145.132 166.62 146.051 166.253 146.762 165.504L146.037 164.816C145.532 165.347 144.884 165.62 144.048 165.62V166.62ZM146.762 165.505C147.492 164.737 147.836 163.733 147.836 162.544H146.836C146.836 163.531 146.556 164.271 146.038 164.815L146.762 165.505ZM147.836 162.544C147.836 161.356 147.492 160.356 146.758 159.603L146.042 160.301C146.556 160.828 146.836 161.556 146.836 162.544H147.836ZM146.766 159.612C146.056 158.846 145.136 158.468 144.048 158.468V159.468C144.88 159.468 145.527 159.746 146.033 160.292L146.766 159.612ZM144.048 158.468C142.96 158.468 142.034 158.846 141.31 159.607L142.034 160.297C142.557 159.746 143.215 159.468 144.048 159.468V158.468ZM141.314 159.603C140.58 160.356 140.236 161.356 140.236 162.544H141.236C141.236 161.556 141.516 160.828 142.03 160.301L141.314 159.603ZM140.236 162.544C140.236 163.733 140.58 164.737 141.31 165.505L142.034 164.815C141.516 164.271 141.236 163.531 141.236 162.544H140.236ZM141.314 165.509C142.039 166.253 142.964 166.62 144.048 166.62V165.62C143.212 165.62 142.552 165.347 142.03 164.811L141.314 165.509ZM153.63 156.088V155.588H153.13V156.088H153.63ZM157.374 156.088H157.874V155.588H157.374V156.088ZM157.374 169V169.5H157.874V169H157.374ZM153.63 169H153.13V169.5H153.63V169ZM153.822 153.688L153.483 154.055L153.822 153.688ZM153.822 150.712L154.162 151.079V151.079L153.822 150.712ZM157.182 150.688L156.85 151.062V151.062L157.182 150.688ZM157.182 153.688L157.522 154.055L157.529 154.048L157.182 153.688ZM153.63 156.588H157.374V155.588H153.63V156.588ZM156.874 156.088V169H157.874V156.088H156.874ZM157.374 168.5H153.63V169.5H157.374V168.5ZM154.13 169V156.088H153.13V169H154.13ZM155.502 153.788C154.918 153.788 154.486 153.621 154.162 153.321L153.483 154.055C154.022 154.555 154.711 154.788 155.502 154.788V153.788ZM154.162 153.321C153.833 153.016 153.674 152.654 153.674 152.2H152.674C152.674 152.93 152.948 153.56 153.483 154.055L154.162 153.321ZM153.674 152.2C153.674 151.746 153.833 151.384 154.162 151.079L153.483 150.345C152.948 150.84 152.674 151.47 152.674 152.2H153.674ZM154.162 151.079C154.486 150.779 154.918 150.612 155.502 150.612V149.612C154.711 149.612 154.022 149.845 153.483 150.345L154.162 151.079ZM155.502 150.612C156.092 150.612 156.527 150.774 156.85 151.062L157.515 150.314C156.974 149.834 156.288 149.612 155.502 149.612V150.612ZM156.85 151.062C157.176 151.351 157.33 151.695 157.33 152.128H158.33C158.33 151.409 158.053 150.793 157.515 150.314L156.85 151.062ZM157.33 152.128C157.33 152.622 157.165 153.01 156.836 153.328L157.529 154.048C158.063 153.534 158.33 152.882 158.33 152.128H157.33ZM156.843 153.321C156.518 153.621 156.087 153.788 155.502 153.788V154.788C156.294 154.788 156.982 154.555 157.522 154.055L156.843 153.321ZM172.561 157.336L172.21 157.692L172.213 157.695L172.561 157.336ZM174.049 169V169.5H174.549V169H174.049ZM170.305 169H169.805V169.5H170.305V169ZM169.633 159.904L169.257 160.233L169.262 160.239L169.633 159.904ZM165.433 160.024L165.792 160.373L165.796 160.368L165.433 160.024ZM164.593 169V169.5H165.093V169H164.593ZM160.849 169H160.349V169.5H160.849V169ZM160.849 156.088V155.588H160.349V156.088H160.849ZM164.425 156.088H164.925V155.588H164.425V156.088ZM164.425 157.6H163.925V158.89L164.795 157.937L164.425 157.6ZM166.273 156.352L166.455 156.818L166.464 156.814L166.273 156.352ZM168.697 156.396C170.19 156.396 171.344 156.84 172.21 157.692L172.912 156.98C171.826 155.912 170.404 155.396 168.697 155.396V156.396ZM172.213 157.695C173.077 158.531 173.549 159.804 173.549 161.608H174.549C174.549 159.636 174.03 158.061 172.909 156.977L172.213 157.695ZM173.549 161.608V169H174.549V161.608H173.549ZM174.049 168.5H170.305V169.5H174.049V168.5ZM170.805 169V162.184H169.805V169H170.805ZM170.805 162.184C170.805 161.1 170.57 160.195 170.004 159.569L169.262 160.239C169.593 160.605 169.805 161.22 169.805 162.184H170.805ZM170.009 159.575C169.444 158.928 168.643 158.636 167.689 158.636V159.636C168.431 159.636 168.926 159.856 169.257 160.233L170.009 159.575ZM167.689 158.636C166.631 158.636 165.739 158.973 165.07 159.68L165.796 160.368C166.247 159.891 166.859 159.636 167.689 159.636V158.636ZM165.075 159.675C164.391 160.379 164.093 161.39 164.093 162.616H165.093C165.093 161.538 165.355 160.821 165.792 160.373L165.075 159.675ZM164.093 162.616V169H165.093V162.616H164.093ZM164.593 168.5H160.849V169.5H164.593V168.5ZM161.349 169V156.088H160.349V169H161.349ZM160.849 156.588H164.425V155.588H160.849V156.588ZM163.925 156.088V157.6H164.925V156.088H163.925ZM164.795 157.937C165.235 157.454 165.785 157.08 166.455 156.818L166.091 155.886C165.289 156.2 164.607 156.658 164.056 157.263L164.795 157.937ZM166.464 156.814C167.133 156.538 167.876 156.396 168.697 156.396V155.396C167.758 155.396 166.885 155.558 166.082 155.89L166.464 156.814ZM185.771 168.376L186.068 168.778L186.373 168.552L186.238 168.198L185.771 168.376ZM184.403 169L184.521 169.486L184.531 169.483L184.403 169ZM179.147 168.016L178.804 168.38L178.807 168.383L179.147 168.016ZM177.899 159.256H178.399V158.756H177.899V159.256ZM175.907 159.256H175.407V159.756H175.907V159.256ZM175.907 156.376V155.876H175.407V156.376H175.907ZM177.899 156.376V156.876H178.399V156.376H177.899ZM177.899 153.232V152.732H177.399V153.232H177.899ZM181.643 153.232H182.143V152.732H181.643V153.232ZM181.643 156.376H181.143V156.876H181.643V156.376ZM184.859 156.376H185.359V155.876H184.859V156.376ZM184.859 159.256V159.756H185.359V159.256H184.859ZM181.643 159.256V158.756H181.143V159.256H181.643ZM182.051 165.784L181.678 166.117L181.687 166.128L181.697 166.138L182.051 165.784ZM184.763 165.736L185.23 165.558L184.99 164.93L184.458 165.34L184.763 165.736ZM185.474 167.974C185.167 168.201 184.771 168.385 184.275 168.517L184.531 169.483C185.122 169.327 185.639 169.095 186.068 168.778L185.474 167.974ZM184.285 168.514C183.799 168.632 183.279 168.692 182.723 168.692V169.692C183.351 169.692 183.951 169.624 184.521 169.486L184.285 168.514ZM182.723 168.692C181.27 168.692 180.215 168.322 179.486 167.649L178.807 168.383C179.775 169.278 181.103 169.692 182.723 169.692V168.692ZM179.49 167.652C178.788 166.991 178.399 165.99 178.399 164.56H177.399C177.399 166.17 177.842 167.473 178.804 168.38L179.49 167.652ZM178.399 164.56V159.256H177.399V164.56H178.399ZM177.899 158.756H175.907V159.756H177.899V158.756ZM176.407 159.256V156.376H175.407V159.256H176.407ZM175.907 156.876H177.899V155.876H175.907V156.876ZM178.399 156.376V153.232H177.399V156.376H178.399ZM177.899 153.732H181.643V152.732H177.899V153.732ZM181.143 153.232V156.376H182.143V153.232H181.143ZM181.643 156.876H184.859V155.876H181.643V156.876ZM184.359 156.376V159.256H185.359V156.376H184.359ZM184.859 158.756H181.643V159.756H184.859V158.756ZM181.143 159.256V164.512H182.143V159.256H181.143ZM181.143 164.512C181.143 165.137 181.3 165.695 181.678 166.117L182.423 165.451C182.258 165.265 182.143 164.975 182.143 164.512H181.143ZM181.697 166.138C182.102 166.542 182.642 166.716 183.251 166.716V165.716C182.836 165.716 182.576 165.602 182.404 165.43L181.697 166.138ZM183.251 166.716C183.938 166.716 184.553 166.528 185.068 166.132L184.458 165.34C184.14 165.584 183.747 165.716 183.251 165.716V166.716ZM184.296 165.914L185.304 168.554L186.238 168.198L185.23 165.558L184.296 165.914ZM125.538 181.944L125.331 182.399L125.333 182.4L125.538 181.944ZM128.082 190.536L128.502 190.808L128.504 190.805L128.082 190.536ZM125.538 192.648L125.74 193.105L125.743 193.104L125.538 192.648ZM118.29 193.368V192.868H117.79V193.368H118.29ZM118.29 198V198.5H118.79V198H118.29ZM114.402 198H113.902V198.5H114.402V198ZM114.402 181.2V180.7H113.902V181.2H114.402ZM124.122 189.456L124.438 189.843L124.444 189.838L124.122 189.456ZM124.122 185.136L123.8 185.519L123.806 185.523L124.122 185.136ZM118.29 184.368V183.868H117.79V184.368H118.29ZM118.29 190.2H117.79V190.7H118.29V190.2ZM121.674 181.7C123.108 181.7 124.322 181.939 125.331 182.399L125.746 181.489C124.579 180.957 123.217 180.7 121.674 180.7V181.7ZM125.333 182.4C126.36 182.861 127.129 183.506 127.663 184.328L128.502 183.784C127.851 182.782 126.924 182.019 125.743 181.488L125.333 182.4ZM127.663 184.328C128.195 185.148 128.47 186.13 128.47 187.296H129.47C129.47 185.966 129.154 184.788 128.502 183.784L127.663 184.328ZM128.47 187.296C128.47 188.444 128.195 189.429 127.661 190.267L128.504 190.805C129.153 189.787 129.47 188.612 129.47 187.296H128.47ZM127.663 190.264C127.129 191.086 126.36 191.731 125.333 192.192L125.743 193.104C126.924 192.573 127.851 191.81 128.502 190.808L127.663 190.264ZM125.336 192.191C124.326 192.636 123.11 192.868 121.674 192.868V193.868C123.215 193.868 124.575 193.62 125.74 193.105L125.336 192.191ZM121.674 192.868H118.29V193.868H121.674V192.868ZM117.79 193.368V198H118.79V193.368H117.79ZM118.29 197.5H114.402V198.5H118.29V197.5ZM114.902 198V181.2H113.902V198H114.902ZM114.402 181.7H121.674V180.7H114.402V181.7ZM121.458 190.7C122.687 190.7 123.706 190.44 124.438 189.843L123.806 189.069C123.322 189.464 122.565 189.7 121.458 189.7V190.7ZM124.444 189.838C125.184 189.215 125.534 188.344 125.534 187.296H124.534C124.534 188.104 124.276 188.673 123.8 189.074L124.444 189.838ZM125.534 187.296C125.534 186.236 125.186 185.359 124.438 184.749L123.806 185.523C124.274 185.905 124.534 186.468 124.534 187.296H125.534ZM124.444 184.754C123.712 184.137 122.69 183.868 121.458 183.868V184.868C122.562 184.868 123.316 185.111 123.8 185.518L124.444 184.754ZM121.458 183.868H118.29V184.868H121.458V183.868ZM117.79 184.368V190.2H118.79V184.368H117.79ZM118.29 190.7H121.458V189.7H118.29V190.7ZM133.93 197.352L133.694 197.793L133.702 197.797L133.93 197.352ZM131.41 194.976L130.982 195.234L131.41 194.976ZM131.41 188.112L130.982 187.854L131.41 188.112ZM133.93 185.76L134.162 186.203L134.164 186.202L133.93 185.76ZM141.25 185.76L141.014 186.2L141.019 186.203L141.25 185.76ZM143.77 188.112L144.199 187.854L143.77 188.112ZM143.77 194.976L144.199 195.234L143.77 194.976ZM141.25 197.352L141.482 197.795L141.487 197.792L141.25 197.352ZM139.954 194.16L139.592 193.815L139.592 193.816L139.954 194.16ZM139.954 188.952L139.588 189.292L139.596 189.301L139.954 188.952ZM135.226 188.952L135.584 189.301L135.589 189.297L135.226 188.952ZM135.226 194.16L134.864 194.505L134.868 194.509L135.226 194.16ZM137.602 197.692C136.313 197.692 135.169 197.427 134.159 196.907L133.702 197.797C134.868 198.397 136.172 198.692 137.602 198.692V197.692ZM134.167 196.912C133.171 196.377 132.399 195.646 131.839 194.718L130.982 195.234C131.638 196.322 132.546 197.175 133.694 197.792L134.167 196.912ZM131.839 194.718C131.282 193.794 130.998 192.741 130.998 191.544H129.998C129.998 192.907 130.323 194.142 130.982 195.234L131.839 194.718ZM130.998 191.544C130.998 190.347 131.282 189.294 131.839 188.37L130.982 187.854C130.323 188.946 129.998 190.181 129.998 191.544H130.998ZM131.839 188.37C132.398 187.443 133.169 186.722 134.162 186.203L133.699 185.317C132.548 185.918 131.639 186.765 130.982 187.854L131.839 188.37ZM134.164 186.202C135.173 185.668 136.315 185.396 137.602 185.396V184.396C136.17 184.396 134.864 184.7 133.697 185.318L134.164 186.202ZM137.602 185.396C138.89 185.396 140.023 185.668 141.014 186.2L141.487 185.32C140.334 184.7 139.035 184.396 137.602 184.396V185.396ZM141.019 186.203C142.012 186.722 142.783 187.443 143.342 188.37L144.199 187.854C143.542 186.765 142.633 185.918 141.482 185.317L141.019 186.203ZM143.342 188.37C143.899 189.294 144.182 190.347 144.182 191.544H145.182C145.182 190.181 144.858 188.946 144.199 187.854L143.342 188.37ZM144.182 191.544C144.182 192.741 143.899 193.794 143.342 194.718L144.199 195.234C144.858 194.142 145.182 192.907 145.182 191.544H144.182ZM143.342 194.718C142.782 195.646 142.01 196.377 141.014 196.912L141.487 197.792C142.635 197.175 143.543 196.322 144.199 195.234L143.342 194.718ZM141.019 196.909C140.027 197.427 138.892 197.692 137.602 197.692V198.692C139.033 198.692 140.33 198.397 141.482 197.795L141.019 196.909ZM137.602 195.62C138.686 195.62 139.606 195.253 140.317 194.504L139.592 193.816C139.087 194.347 138.439 194.62 137.602 194.62V195.62ZM140.317 194.505C141.046 193.737 141.39 192.733 141.39 191.544H140.39C140.39 192.531 140.111 193.271 139.592 193.815L140.317 194.505ZM141.39 191.544C141.39 190.356 141.047 189.356 140.312 188.603L139.596 189.301C140.11 189.828 140.39 190.556 140.39 191.544H141.39ZM140.321 188.612C139.611 187.846 138.69 187.468 137.602 187.468V188.468C138.435 188.468 139.082 188.746 139.588 189.292L140.321 188.612ZM137.602 187.468C136.515 187.468 135.589 187.846 134.864 188.607L135.589 189.297C136.112 188.746 136.77 188.468 137.602 188.468V187.468ZM134.868 188.603C134.134 189.356 133.79 190.356 133.79 191.544H134.79C134.79 190.556 135.071 189.828 135.584 189.301L134.868 188.603ZM133.79 191.544C133.79 192.733 134.135 193.737 134.864 194.505L135.589 193.815C135.07 193.271 134.79 192.531 134.79 191.544H133.79ZM134.868 194.509C135.594 195.253 136.519 195.62 137.602 195.62V194.62C136.766 194.62 136.107 194.347 135.584 193.811L134.868 194.509ZM158.081 185.736L157.832 186.17L157.841 186.174L158.081 185.736ZM160.409 188.064L159.972 188.307L159.974 188.31L160.409 188.064ZM160.409 195.048L160.844 195.294L160.846 195.291L160.409 195.048ZM158.081 197.376L158.324 197.813L158.327 197.811L158.081 197.376ZM150.929 196.632L151.299 196.296L150.429 195.337V196.632H150.929ZM150.929 202.656V203.156H151.429V202.656H150.929ZM147.185 202.656H146.685V203.156H147.185V202.656ZM147.185 185.088V184.588H146.685V185.088H147.185ZM150.761 185.088H151.261V184.588H150.761V185.088ZM150.761 186.576H150.261V187.963L151.146 186.895L150.761 186.576ZM156.521 194.16L156.159 193.815L156.159 193.816L156.521 194.16ZM156.521 188.952L156.154 189.292L156.163 189.301L156.521 188.952ZM151.793 188.952L151.431 188.607L151.431 188.608L151.793 188.952ZM151.793 194.16L151.426 194.5L151.435 194.509L151.793 194.16ZM154.817 185.396C155.936 185.396 156.937 185.656 157.832 186.17L158.33 185.302C157.273 184.696 156.098 184.396 154.817 184.396V185.396ZM157.841 186.174C158.748 186.672 159.457 187.38 159.972 188.307L160.846 187.821C160.241 186.732 159.398 185.888 158.321 185.298L157.841 186.174ZM159.974 188.31C160.485 189.215 160.749 190.288 160.749 191.544H161.749C161.749 190.144 161.453 188.897 160.844 187.818L159.974 188.31ZM160.749 191.544C160.749 192.8 160.485 193.882 159.972 194.805L160.846 195.291C161.453 194.198 161.749 192.944 161.749 191.544H160.749ZM159.974 194.802C159.458 195.715 158.748 196.425 157.835 196.941L158.327 197.811C159.398 197.207 160.24 196.365 160.844 195.294L159.974 194.802ZM157.838 196.939C156.942 197.439 155.938 197.692 154.817 197.692V198.692C156.096 198.692 157.269 198.401 158.324 197.813L157.838 196.939ZM154.817 197.692C153.283 197.692 152.132 197.213 151.299 196.296L150.559 196.968C151.614 198.131 153.055 198.692 154.817 198.692V197.692ZM150.429 196.632V202.656H151.429V196.632H150.429ZM150.929 202.156H147.185V203.156H150.929V202.156ZM147.685 202.656V185.088H146.685V202.656H147.685ZM147.185 185.588H150.761V184.588H147.185V185.588ZM150.261 185.088V186.576H151.261V185.088H150.261ZM151.146 186.895C151.958 185.915 153.154 185.396 154.817 185.396V184.396C152.928 184.396 151.42 184.997 150.376 186.257L151.146 186.895ZM154.169 195.62C155.253 195.62 156.172 195.253 156.884 194.504L156.159 193.816C155.654 194.347 155.005 194.62 154.169 194.62V195.62ZM156.883 194.505C157.613 193.737 157.957 192.733 157.957 191.544H156.957C156.957 192.531 156.677 193.271 156.159 193.815L156.883 194.505ZM157.957 191.544C157.957 190.356 157.613 189.356 156.879 188.603L156.163 189.301C156.677 189.828 156.957 190.556 156.957 191.544H157.957ZM156.888 188.612C156.178 187.846 155.257 187.468 154.169 187.468V188.468C155.001 188.468 155.648 188.746 156.154 189.292L156.888 188.612ZM154.169 187.468C153.081 187.468 152.155 187.846 151.431 188.607L152.155 189.297C152.679 188.746 153.337 188.468 154.169 188.468V187.468ZM151.431 188.608C150.715 189.361 150.381 190.359 150.381 191.544H151.381C151.381 190.553 151.655 189.823 152.156 189.296L151.431 188.608ZM150.381 191.544C150.381 192.729 150.715 193.732 151.426 194.5L152.16 193.82C151.655 193.276 151.381 192.535 151.381 191.544H150.381ZM151.435 194.509C152.161 195.253 153.085 195.62 154.169 195.62V194.62C153.333 194.62 152.673 194.347 152.151 193.811L151.435 194.509ZM174.651 185.736L174.402 186.17L174.411 186.174L174.651 185.736ZM176.979 188.064L176.542 188.307L176.544 188.31L176.979 188.064ZM176.979 195.048L177.415 195.294L177.416 195.291L176.979 195.048ZM174.651 197.376L174.895 197.813L174.897 197.811L174.651 197.376ZM167.499 196.632L167.87 196.296L166.999 195.337V196.632H167.499ZM167.499 202.656V203.156H167.999V202.656H167.499ZM163.755 202.656H163.255V203.156H163.755V202.656ZM163.755 185.088V184.588H163.255V185.088H163.755ZM167.331 185.088H167.831V184.588H167.331V185.088ZM167.331 186.576H166.831V187.963L167.716 186.895L167.331 186.576ZM173.091 194.16L172.729 193.815L172.729 193.816L173.091 194.16ZM173.091 188.952L172.725 189.292L172.733 189.301L173.091 188.952ZM168.363 188.952L168.001 188.607L168.001 188.608L168.363 188.952ZM168.363 194.16L167.997 194.5L168.005 194.509L168.363 194.16ZM171.387 185.396C172.506 185.396 173.507 185.656 174.403 186.17L174.9 185.302C173.843 184.696 172.669 184.396 171.387 184.396V185.396ZM174.411 186.174C175.319 186.672 176.027 187.38 176.542 188.307L177.416 187.821C176.812 186.732 175.968 185.888 174.892 185.298L174.411 186.174ZM176.544 188.31C177.055 189.215 177.319 190.288 177.319 191.544H178.319C178.319 190.144 178.024 188.897 177.415 187.818L176.544 188.31ZM177.319 191.544C177.319 192.8 177.055 193.882 176.542 194.805L177.416 195.291C178.024 194.198 178.319 192.944 178.319 191.544H177.319ZM176.544 194.802C176.029 195.715 175.318 196.425 174.406 196.941L174.897 197.811C175.968 197.207 176.81 196.365 177.415 195.294L176.544 194.802ZM174.408 196.939C173.512 197.439 172.509 197.692 171.387 197.692V198.692C172.666 198.692 173.839 198.401 174.895 197.813L174.408 196.939ZM171.387 197.692C169.854 197.692 168.702 197.213 167.87 196.296L167.129 196.968C168.184 198.131 169.625 198.692 171.387 198.692V197.692ZM166.999 196.632V202.656H167.999V196.632H166.999ZM167.499 202.156H163.755V203.156H167.499V202.156ZM164.255 202.656V185.088H163.255V202.656H164.255ZM163.755 185.588H167.331V184.588H163.755V185.588ZM166.831 185.088V186.576H167.831V185.088H166.831ZM167.716 186.895C168.528 185.915 169.724 185.396 171.387 185.396V184.396C169.499 184.396 167.99 184.997 166.946 186.257L167.716 186.895ZM170.739 195.62C171.823 195.62 172.743 195.253 173.454 194.504L172.729 193.816C172.224 194.347 171.576 194.62 170.739 194.62V195.62ZM173.454 194.505C174.183 193.737 174.527 192.733 174.527 191.544H173.527C173.527 192.531 173.247 193.271 172.729 193.815L173.454 194.505ZM174.527 191.544C174.527 190.356 174.183 189.356 173.449 188.603L172.733 189.301C173.247 189.828 173.527 190.556 173.527 191.544H174.527ZM173.458 188.612C172.748 187.846 171.827 187.468 170.739 187.468V188.468C171.572 188.468 172.219 188.746 172.725 189.292L173.458 188.612ZM170.739 187.468C169.652 187.468 168.726 187.846 168.001 188.607L168.726 189.297C169.249 188.746 169.907 188.468 170.739 188.468V187.468ZM168.001 188.608C167.285 189.361 166.951 190.359 166.951 191.544H167.951C167.951 190.553 168.226 189.823 168.726 189.296L168.001 188.608ZM166.951 191.544C166.951 192.729 167.285 193.732 167.997 194.5L168.73 193.82C168.225 193.276 167.951 192.535 167.951 191.544H166.951ZM168.005 194.509C168.731 195.253 169.656 195.62 170.739 195.62V194.62C169.903 194.62 169.244 194.347 168.721 193.811L168.005 194.509ZM192.79 185.088L193.25 185.284L193.546 184.588H192.79V185.088ZM186.958 198.792L186.498 198.596L186.494 198.607L186.958 198.792ZM184.75 201.936L184.466 201.525L184.462 201.527L184.75 201.936ZM179.614 202.536L179.765 202.059L179.614 202.536ZM178.006 201.672L177.561 201.444L177.384 201.789L177.675 202.046L178.006 201.672ZM179.374 199.008L179.706 198.634L179.224 198.206L178.929 198.78L179.374 199.008ZM180.358 199.608L180.176 200.074L180.183 200.076L180.358 199.608ZM182.734 199.44L182.434 199.04L182.428 199.045L182.422 199.05L182.734 199.44ZM183.598 198.216L184.055 198.419L184.059 198.41L184.062 198.402L183.598 198.216ZM183.646 198.096L184.11 198.282L184.187 198.089L184.105 197.899L183.646 198.096ZM178.054 185.088V184.588H177.295L177.595 185.285L178.054 185.088ZM181.918 185.088L182.38 184.897L182.252 184.588H181.918V185.088ZM185.542 193.848L185.08 194.039L185.541 195.152L186.004 194.04L185.542 193.848ZM189.19 185.088V184.588H188.857L188.729 184.896L189.19 185.088ZM192.33 184.892L186.498 198.596L187.418 198.988L193.25 185.284L192.33 184.892ZM186.494 198.607C185.921 200.046 185.234 200.994 184.466 201.525L185.034 202.347C186.026 201.662 186.811 200.514 187.423 198.977L186.494 198.607ZM184.462 201.527C183.696 202.066 182.753 202.348 181.606 202.348V203.348C182.923 203.348 184.076 203.022 185.038 202.345L184.462 201.527ZM181.606 202.348C180.987 202.348 180.374 202.252 179.765 202.059L179.463 203.013C180.167 203.236 180.882 203.348 181.606 203.348V202.348ZM179.765 202.059C179.16 201.868 178.69 201.61 178.337 201.298L177.675 202.046C178.154 202.47 178.756 202.788 179.463 203.013L179.765 202.059ZM178.451 201.9L179.819 199.236L178.929 198.78L177.561 201.444L178.451 201.9ZM179.042 199.382C179.375 199.678 179.754 199.909 180.176 200.074L180.54 199.142C180.226 199.019 179.949 198.85 179.706 198.634L179.042 199.382ZM180.183 200.076C180.616 200.239 181.052 200.324 181.486 200.324V199.324C181.185 199.324 180.868 199.265 180.534 199.14L180.183 200.076ZM181.486 200.324C182.083 200.324 182.618 200.174 183.046 199.83L182.422 199.05C182.211 199.218 181.914 199.324 181.486 199.324V200.324ZM183.034 199.84C183.451 199.527 183.782 199.032 184.055 198.419L183.141 198.013C182.902 198.552 182.657 198.873 182.434 199.04L183.034 199.84ZM184.062 198.402L184.11 198.282L183.182 197.91L183.134 198.03L184.062 198.402ZM184.105 197.899L178.513 184.891L177.595 185.285L183.187 198.293L184.105 197.899ZM178.054 185.588H181.918V184.588H178.054V185.588ZM181.456 185.279L185.08 194.039L186.004 193.657L182.38 184.897L181.456 185.279ZM186.004 194.04L189.652 185.28L188.729 184.896L185.081 193.656L186.004 194.04ZM189.19 185.588H192.79V184.588H189.19V185.588Z" fill="black"/>
<g opacity="0.15">
<path d="M132.31 257C143.737 257 153 247.737 153 236.31V182H98.6897C87.2631 182 78 191.263 78 202.69C78 232.684 102.316 257 132.31 257Z" fill="#FF5A5A"/>
<path d="M173.69 257C162.263 257 153 247.737 153 236.31V182H207.31C218.737 182 228 191.263 228 202.69C228 232.684 203.684 257 173.69 257Z" fill="#FF464B"/>
<path d="M173.69 107C162.263 107 153 116.263 153 127.69V182H207.31C218.737 182 228 172.737 228 161.31C228 131.316 203.684 107 173.69 107Z" fill="#FF5A5A"/>
<path d="M132.31 107C143.737 107 153 116.263 153 127.69V182H98.6897C87.2631 182 78 172.737 78 161.31C78 131.316 102.316 107 132.31 107Z" fill="#FF464B"/>
<path d="M153 150.966C135.86 150.966 121.966 164.86 121.966 182H153V150.966Z" fill="#FF8C4E"/>
<path d="M184.034 182C184.034 164.86 170.14 150.966 153 150.966V182H184.034Z" fill="#FFA555"/>
<path d="M153 213.034C170.14 213.034 184.034 199.14 184.034 182H153V213.034Z" fill="#FF8C4E"/>
<path d="M121.966 182C121.966 199.14 135.86 213.034 153 213.034V182H121.966Z" fill="#FFA555"/>
<path d="M195.729 149.325C194.861 148.193 193.238 147.97 192.104 148.842L166.837 168.163L186.159 142.897C187.027 141.763 186.811 140.139 185.675 139.271C184.542 138.405 182.919 138.621 182.05 139.755L151.155 180.155L110.754 211.049C109.619 211.917 109.403 213.541 110.271 214.675C110.779 215.34 111.548 215.69 112.327 215.69C112.874 215.69 113.427 215.517 113.896 215.159L139.163 195.837L119.841 221.103C118.973 222.238 119.189 223.861 120.325 224.729C120.793 225.088 121.346 225.261 121.894 225.261C122.672 225.261 123.441 224.911 123.95 224.245L154.844 183.845L195.245 152.95C196.381 152.083 196.597 150.459 195.729 149.325Z" fill="#D7464B"/>
<path d="M195.246 211.049L154.845 180.155L123.951 139.754C123.083 138.62 121.459 138.404 120.325 139.271C119.19 140.138 118.974 141.762 119.841 142.896L139.163 168.163L113.897 148.841C112.76 147.97 111.136 148.192 110.271 149.325C109.403 150.459 109.619 152.083 110.755 152.95L151.155 183.844L182.05 224.245C182.558 224.911 183.328 225.26 184.105 225.26C184.653 225.26 185.206 225.087 185.675 224.729C186.81 223.861 187.026 222.237 186.158 221.103L166.837 195.837L192.103 215.158C192.572 215.517 193.125 215.69 193.672 215.69C194.451 215.69 195.22 215.34 195.729 214.675C196.597 213.541 196.381 211.917 195.246 211.049Z" fill="#CD4146"/>
<path d="M176.276 182C176.276 178.518 173.966 175.606 170.806 174.625C172.347 171.696 171.921 168.004 169.459 165.542C166.996 163.079 163.304 162.654 160.376 164.194C159.394 161.034 156.482 158.724 153 158.724C149.518 158.724 146.606 161.034 145.625 164.194C142.696 162.653 139.004 163.079 136.542 165.541C134.079 168.004 133.654 171.696 135.194 174.624C132.034 175.606 129.724 178.518 129.724 182C129.724 185.482 132.034 188.394 135.193 189.375C133.653 192.303 134.079 195.996 136.541 198.458C139.004 200.921 142.696 201.346 145.624 199.806C146.606 202.966 149.518 205.276 153 205.276C156.482 205.276 159.394 202.966 160.375 199.806C163.303 201.347 166.996 200.921 169.458 198.458C171.921 195.996 172.346 192.304 170.806 189.376C173.966 188.394 176.276 185.482 176.276 182Z" fill="#91323C"/>
<path d="M153 197.517C144.443 197.517 137.483 190.557 137.483 182C137.483 173.443 144.443 166.483 153 166.483C161.557 166.483 168.517 173.443 168.517 182C168.517 190.557 161.557 197.517 153 197.517ZM153 171.655C147.296 171.655 142.655 176.296 142.655 182C142.655 187.704 147.296 192.345 153 192.345C158.704 192.345 163.345 187.704 163.345 182C163.345 176.296 158.704 171.655 153 171.655Z" fill="#AF3A41"/>
</g>
<rect y="345.496" width="3.33913" height="35.3979" rx="1.66957" transform="rotate(-90 0 345.496)" fill="#5D6AA2"/>
<rect x="3.21799" y="345.496" width="3.21799" height="35.6174" rx="1.609" transform="rotate(-180 3.21799 345.496)" fill="#5D6AA2"/>
<rect x="293" y="8" width="4" height="34" transform="rotate(90 293 8)" fill="#5D6AA2"/>
<rect x="289" y="8" width="4" height="34" fill="#5D6AA2"/>
<circle cx="13" cy="10" r="10" fill="black"/>
<circle cx="300.837" cy="342.365" r="8" fill="#AA535B"/>
<rect x="9.65398" y="211.93" width="3.21799" height="30.0522" transform="rotate(-180 9.65398 211.93)" fill="#5D6AA2"/>
<rect x="12.872" y="117.322" width="3.21799" height="62.3304" transform="rotate(-180 12.872 117.322)" fill="#5D6AA2"/>
<rect x="300.346" y="279.826" width="3.21799" height="62.3304" transform="rotate(-180 300.346 279.826)" fill="#5D6AA2"/>
<rect x="69" y="14.0174" width="10.0174" height="140.519" transform="rotate(-90 69 14.0174)" fill="#5D6AA2"/>
<rect x="275.675" y="343.27" width="4.45217" height="99.7578" transform="rotate(90 275.675 343.27)" fill="#5D6AA2"/>
<circle cx="8.29066" cy="154.713" r="4" fill="#ACB4D3"/>
<circle cx="299.91" cy="131.113" r="6" fill="#ACB4D3"/>
<path d="M45.948 338.4C47.064 338.4 48.03 338.586 48.846 338.958C49.674 339.33 50.31 339.858 50.754 340.542C51.198 341.226 51.42 342.036 51.42 342.972C51.42 343.896 51.198 344.706 50.754 345.402C50.31 346.086 49.674 346.614 48.846 346.986C48.03 347.346 47.064 347.526 45.948 347.526H43.41V351H40.494V338.4H45.948ZM45.786 345.15C46.662 345.15 47.328 344.964 47.784 344.592C48.24 344.208 48.468 343.668 48.468 342.972C48.468 342.264 48.24 341.724 47.784 341.352C47.328 340.968 46.662 340.776 45.786 340.776H43.41V345.15H45.786ZM57.8942 351.144C56.8742 351.144 55.9562 350.934 55.1402 350.514C54.3362 350.082 53.7062 349.488 53.2502 348.732C52.7942 347.976 52.5662 347.118 52.5662 346.158C52.5662 345.198 52.7942 344.34 53.2502 343.584C53.7062 342.828 54.3362 342.24 55.1402 341.82C55.9562 341.388 56.8742 341.172 57.8942 341.172C58.9142 341.172 59.8262 341.388 60.6302 341.82C61.4342 342.24 62.0642 342.828 62.5202 343.584C62.9762 344.34 63.2042 345.198 63.2042 346.158C63.2042 347.118 62.9762 347.976 62.5202 348.732C62.0642 349.488 61.4342 350.082 60.6302 350.514C59.8262 350.934 58.9142 351.144 57.8942 351.144ZM57.8942 348.84C58.6142 348.84 59.2022 348.6 59.6582 348.12C60.1262 347.628 60.3602 346.974 60.3602 346.158C60.3602 345.342 60.1262 344.694 59.6582 344.214C59.2022 343.722 58.6142 343.476 57.8942 343.476C57.1742 343.476 56.5802 343.722 56.1122 344.214C55.6442 344.694 55.4102 345.342 55.4102 346.158C55.4102 346.974 55.6442 347.628 56.1122 348.12C56.5802 348.6 57.1742 348.84 57.8942 348.84ZM65.0812 341.316H67.8892V351H65.0812V341.316ZM66.4852 339.966C65.9692 339.966 65.5492 339.816 65.2252 339.516C64.9012 339.216 64.7392 338.844 64.7392 338.4C64.7392 337.956 64.9012 337.584 65.2252 337.284C65.5492 336.984 65.9692 336.834 66.4852 336.834C67.0012 336.834 67.4212 336.978 67.7452 337.266C68.0692 337.554 68.2312 337.914 68.2312 338.346C68.2312 338.814 68.0692 339.204 67.7452 339.516C67.4212 339.816 67.0012 339.966 66.4852 339.966ZM76.3812 341.172C77.5812 341.172 78.5472 341.532 79.2792 342.252C80.0232 342.972 80.3952 344.04 80.3952 345.456V351H77.5872V345.888C77.5872 345.12 77.4192 344.55 77.0832 344.178C76.7472 343.794 76.2612 343.602 75.6252 343.602C74.9172 343.602 74.3532 343.824 73.9332 344.268C73.5132 344.7 73.3032 345.348 73.3032 346.212V351H70.4952V341.316H73.1772V342.45C73.5492 342.042 74.0112 341.73 74.5632 341.514C75.1152 341.286 75.7212 341.172 76.3812 341.172ZM89.1865 350.532C88.9105 350.736 88.5685 350.892 88.1605 351C87.7645 351.096 87.3445 351.144 86.9005 351.144C85.7485 351.144 84.8545 350.85 84.2185 350.262C83.5945 349.674 83.2825 348.81 83.2825 347.67V343.692H81.7885V341.532H83.2825V339.174H86.0905V341.532H88.5025V343.692H86.0905V347.634C86.0905 348.042 86.1925 348.36 86.3965 348.588C86.6125 348.804 86.9125 348.912 87.2965 348.912C87.7405 348.912 88.1185 348.792 88.4305 348.552L89.1865 350.532ZM101.512 338.4C102.628 338.4 103.594 338.586 104.41 338.958C105.238 339.33 105.874 339.858 106.318 340.542C106.762 341.226 106.984 342.036 106.984 342.972C106.984 343.896 106.762 344.706 106.318 345.402C105.874 346.086 105.238 346.614 104.41 346.986C103.594 347.346 102.628 347.526 101.512 347.526H98.9745V351H96.0585V338.4H101.512ZM101.35 345.15C102.226 345.15 102.892 344.964 103.348 344.592C103.804 344.208 104.032 343.668 104.032 342.972C104.032 342.264 103.804 341.724 103.348 341.352C102.892 340.968 102.226 340.776 101.35 340.776H98.9745V345.15H101.35ZM113.459 351.144C112.439 351.144 111.521 350.934 110.705 350.514C109.901 350.082 109.271 349.488 108.815 348.732C108.359 347.976 108.131 347.118 108.131 346.158C108.131 345.198 108.359 344.34 108.815 343.584C109.271 342.828 109.901 342.24 110.705 341.82C111.521 341.388 112.439 341.172 113.459 341.172C114.479 341.172 115.391 341.388 116.195 341.82C116.999 342.24 117.629 342.828 118.085 343.584C118.541 344.34 118.769 345.198 118.769 346.158C118.769 347.118 118.541 347.976 118.085 348.732C117.629 349.488 116.999 350.082 116.195 350.514C115.391 350.934 114.479 351.144 113.459 351.144ZM113.459 348.84C114.179 348.84 114.767 348.6 115.223 348.12C115.691 347.628 115.925 346.974 115.925 346.158C115.925 345.342 115.691 344.694 115.223 344.214C114.767 343.722 114.179 343.476 113.459 343.476C112.739 343.476 112.145 343.722 111.677 344.214C111.209 344.694 110.975 345.342 110.975 346.158C110.975 346.974 111.209 347.628 111.677 348.12C112.145 348.6 112.739 348.84 113.459 348.84ZM126.37 341.172C127.27 341.172 128.086 341.382 128.818 341.802C129.562 342.21 130.144 342.792 130.564 343.548C130.984 344.292 131.194 345.162 131.194 346.158C131.194 347.154 130.984 348.03 130.564 348.786C130.144 349.53 129.562 350.112 128.818 350.532C128.086 350.94 127.27 351.144 126.37 351.144C125.134 351.144 124.162 350.754 123.454 349.974V354.492H120.646V341.316H123.328V342.432C124.024 341.592 125.038 341.172 126.37 341.172ZM125.884 348.84C126.604 348.84 127.192 348.6 127.648 348.12C128.116 347.628 128.35 346.974 128.35 346.158C128.35 345.342 128.116 344.694 127.648 344.214C127.192 343.722 126.604 343.476 125.884 343.476C125.164 343.476 124.57 343.722 124.102 344.214C123.646 344.694 123.418 345.342 123.418 346.158C123.418 346.974 123.646 347.628 124.102 348.12C124.57 348.6 125.164 348.84 125.884 348.84ZM138.797 341.172C139.697 341.172 140.513 341.382 141.245 341.802C141.989 342.21 142.571 342.792 142.991 343.548C143.411 344.292 143.621 345.162 143.621 346.158C143.621 347.154 143.411 348.03 142.991 348.786C142.571 349.53 141.989 350.112 141.245 350.532C140.513 350.94 139.697 351.144 138.797 351.144C137.561 351.144 136.589 350.754 135.881 349.974V354.492H133.073V341.316H135.755V342.432C136.451 341.592 137.465 341.172 138.797 341.172ZM138.311 348.84C139.031 348.84 139.619 348.6 140.075 348.12C140.543 347.628 140.777 346.974 140.777 346.158C140.777 345.342 140.543 344.694 140.075 344.214C139.619 343.722 139.031 343.476 138.311 343.476C137.591 343.476 136.997 343.722 136.529 344.214C136.073 344.694 135.845 345.342 135.845 346.158C135.845 346.974 136.073 347.628 136.529 348.12C136.997 348.6 137.591 348.84 138.311 348.84ZM154.849 341.316L150.475 351.594C150.031 352.71 149.479 353.496 148.819 353.952C148.171 354.408 147.385 354.636 146.461 354.636C145.957 354.636 145.459 354.558 144.967 354.402C144.475 354.246 144.073 354.03 143.761 353.754L144.787 351.756C145.003 351.948 145.249 352.098 145.525 352.206C145.813 352.314 146.095 352.368 146.371 352.368C146.755 352.368 147.067 352.272 147.307 352.08C147.547 351.9 147.763 351.594 147.955 351.162L147.991 351.072L143.797 341.316H146.695L149.413 347.886L152.149 341.316H154.849Z" fill="#5F6A6B"/>
</svg>
